<svg width="20" height="20" viewBox="0 0 20 20" fill="none" xmlns="http://www.w3.org/2000/svg">
<path d="M4.2001 0.600098C2.21188 0.600098 0.600098 2.21188 0.600098 4.2001V13.8001C0.600098 15.7884 2.21188 17.4001 4.2001 17.4001H8.06466L8.31805 16.3866C8.33373 16.3238 8.35095 16.2617 8.36969 16.2001H4.2001C2.87461 16.2001 1.8001 15.1256 1.8001 13.8001V5.4001H16.2001V8.07805C16.5834 7.91382 16.9904 7.82237 17.4001 7.80368V4.2001C17.4001 2.21188 15.7884 0.600098 13.8001 0.600098H4.2001ZM1.8001 4.2001C1.8001 2.87461 2.87461 1.8001 4.2001 1.8001H13.8001C15.1256 1.8001 16.2001 2.87461 16.2001 4.2001H1.8001ZM10.1759 15.4527L15.9711 9.65746C16.8475 8.78099 18.2685 8.78099 19.1449 9.65746C20.0213 10.5338 20.0213 11.9547 19.1449 12.8312L13.3496 18.6265C13.0117 18.9644 12.5883 19.2041 12.1248 19.32L10.3273 19.7694C9.54562 19.9647 8.83751 19.2567 9.03298 18.4751L9.48226 16.6776C9.59818 16.214 9.83794 15.7907 10.1759 15.4527Z" fill="#212121"/>
</svg>
