<svg width="23" height="16" viewBox="0 0 23 16" fill="none" xmlns="http://www.w3.org/2000/svg">
<path d="M15.8088 9.12988C17.1788 10.0599 18.1388 11.3199 18.1388 12.9999V15.9999H22.1388V12.9999C22.1388 10.8199 18.5688 9.52988 15.8088 9.12988Z" fill="#807F7F"/>
<path d="M14.1388 8C16.3488 8 18.1388 6.21 18.1388 4C18.1388 1.79 16.3488 0 14.1388 0C13.6688 0 13.2288 0.0999998 12.8088 0.24C13.6388 1.27 14.1388 2.58 14.1388 4C14.1388 5.42 13.6388 6.73 12.8088 7.76C13.2288 7.9 13.6688 8 14.1388 8Z" fill="#807F7F"/>
<path d="M8.13892 8C10.3489 8 12.1389 6.21 12.1389 4C12.1389 1.79 10.3489 0 8.13892 0C5.92892 0 4.13892 1.79 4.13892 4C4.13892 6.21 5.92892 8 8.13892 8ZM8.13892 2C9.23892 2 10.1389 2.9 10.1389 4C10.1389 5.1 9.23892 6 8.13892 6C7.03892 6 6.13892 5.1 6.13892 4C6.13892 2.9 7.03892 2 8.13892 2Z" fill="#807F7F"/>
<path d="M8.13892 9C5.46892 9 0.138916 10.34 0.138916 13V16H16.1389V13C16.1389 10.34 10.8089 9 8.13892 9ZM14.1389 14H2.13892V13.01C2.33892 12.29 5.43892 11 8.13892 11C10.8389 11 13.9389 12.29 14.1389 13V14Z" fill="#807F7F"/>
</svg>
