<svg width="61" height="60" viewBox="0 0 61 60" fill="none" xmlns="http://www.w3.org/2000/svg">
<path fill-rule="evenodd" clip-rule="evenodd" d="M22.9645 0.613127C18.7864 1.59698 13.9773 4.28189 10.3125 7.67785C3.53959 13.9531 0.474434 20.7689 0.500161 29.4986C0.5265 38.4133 2.68693 44.2036 8.21637 50.1803C14.487 56.9582 21.2978 60.0256 30.021 59.9998C38.9292 59.9735 44.7153 57.8115 50.6875 52.278C57.4604 46.0028 60.5256 39.1869 60.4998 30.4573C60.4735 21.5425 58.3131 15.7522 52.7837 9.77552C46.3924 2.8671 39.6789 -0.100397 30.6728 0.00258642C27.7142 0.036914 24.2454 0.310921 22.9645 0.613127ZM46.2007 14.5722C49.9592 16.7275 51.599 20.0419 51.5586 25.4007C51.4845 35.2631 46.951 43.2584 39.9454 45.8814C37.0346 46.9713 35.1743 47.1417 26.1889 47.1417C17.8357 47.1417 15.799 46.978 15.799 46.308C15.799 45.8489 15.9711 44.2183 16.1812 42.6834L16.5635 39.8931L25.8288 39.6859C36.6297 39.445 38.4778 38.7836 40.7227 34.3541C42.5168 30.8153 43.1312 25.7299 42.0409 23.4495C40.814 20.8854 38.1335 20.2442 28.4682 20.2044C20.7092 20.1731 20.0292 20.0805 20.3073 19.0973C20.4733 18.5076 20.7955 16.8304 21.0228 15.3715L21.4356 12.7185L32.5526 12.9196C42.9273 13.1071 43.8387 13.2175 46.2007 14.5722ZM30.8767 27.3727C30.7015 27.9624 30.3757 29.2104 30.1527 30.1453C29.4109 33.2574 28.0486 33.6559 18.142 33.6559H9.11987L9.99458 30.7466C10.476 29.1467 11.3422 27.4916 11.9198 27.0686C12.6506 26.5341 15.7445 26.3 22.0831 26.3C30.4743 26.3 31.1701 26.3846 30.8767 27.3727Z" fill="url(#paint0_linear_168_207)"/>
<defs>
<linearGradient id="paint0_linear_168_207" x1="30.5" y1="0" x2="30.5" y2="60" gradientUnits="userSpaceOnUse">
<stop stop-color="#A50034"/>
<stop offset="1" stop-color="#FF608C"/>
</linearGradient>
</defs>
</svg>
