<svg width="98" height="98" viewBox="0 0 98 98" fill="none" xmlns="http://www.w3.org/2000/svg">
<path fill-rule="evenodd" clip-rule="evenodd" d="M36.6743 1.00022C29.8533 2.60522 22.0023 6.98522 16.0193 12.5252C4.96226 22.7622 -0.0417379 33.8812 0.000262115 48.1222C0.0432621 62.6652 3.57026 72.1112 12.5973 81.8612C22.8343 92.9182 33.9533 97.9222 48.1943 97.8802C62.7373 97.8372 72.1833 94.3102 81.9333 85.2832C92.9903 75.0462 97.9943 63.9272 97.9523 49.6862C97.9093 35.1432 94.3823 25.6972 85.3553 15.9472C74.9213 4.67722 63.9613 -0.163781 49.2583 0.00421932C44.4283 0.0602193 38.7653 0.507219 36.6743 1.00022ZM74.6083 23.7722C80.7443 27.2882 83.4213 32.6952 83.3553 41.4372C83.2343 57.5262 75.8333 70.5692 64.3963 74.8482C59.6443 76.6262 56.6073 76.9042 41.9383 76.9042C28.3013 76.9042 24.9763 76.6372 24.9763 75.5442C24.9763 74.7952 25.2573 72.1352 25.6003 69.6312L26.2243 65.0792L41.3503 64.7412C58.9833 64.3482 62.0003 63.2692 65.6653 56.0432C68.5943 50.2702 69.5973 41.9742 67.8173 38.2542C65.8143 34.0712 61.4383 33.0252 45.6593 32.9602C32.9923 32.9092 31.8823 32.7582 32.3363 31.1542C32.6073 30.1922 33.1333 27.4562 33.5043 25.0762L34.1783 20.7482L52.3273 21.0762C69.2643 21.3822 70.7523 21.5622 74.6083 23.7722ZM49.5913 44.6542C49.3053 45.6162 48.7733 47.6522 48.4093 49.1772C47.1983 54.2542 44.9743 54.9042 28.8013 54.9042H14.0723L15.5003 50.1582C16.2863 47.5482 17.7003 44.8482 18.6433 44.1582C19.8363 43.2862 24.8873 42.9042 35.2353 42.9042C48.9343 42.9042 50.0703 43.0422 49.5913 44.6542Z" fill="#203CCF"/>
</svg>
