<svg width="21" height="16" viewBox="0 0 21 20" fill="none" xmlns="http://www.w3.org/2000/svg">
	<path d="M14.6889 11C15.4389 11 16.0989 10.59 16.4389 9.97L20.0189 3.48C20.3889 2.82 19.9089 2 19.1489 2H4.34892L3.40892 0H0.138916V2H2.13892L5.73892 9.59L4.38892 12.03C3.65892 13.37 4.61892 15 6.13892 15H18.1389V13H6.13892L7.23892 11H14.6889ZM5.29892 4H17.4489L14.6889 9H7.66892L5.29892 4ZM6.13892 16C5.03892 16 4.14892 16.9 4.14892 18C4.14892 19.1 5.03892 20 6.13892 20C7.23892 20 8.13892 19.1 8.13892 18C8.13892 16.9 7.23892 16 6.13892 16ZM16.1389 16C15.0389 16 14.1489 16.9 14.1489 18C14.1489 19.1 15.0389 20 16.1389 20C17.2389 20 18.1389 19.1 18.1389 18C18.1389 16.9 17.2389 16 16.1389 16Z" fill="white" />
</svg>
