<svg width="21" height="20" viewBox="0 0 21 20" fill="none" xmlns="http://www.w3.org/2000/svg">
<path d="M10.5 19.5C11.9438 19.5 13.125 18.6231 13.125 17.5513H7.875C7.875 18.6231 9.05625 19.5 10.5 19.5ZM18.375 13.6538V8.78205C18.375 5.79077 16.2356 3.28667 12.4688 2.6241V1.96154C12.4688 1.15282 11.5894 0.5 10.5 0.5C9.41063 0.5 8.53125 1.15282 8.53125 1.96154V2.6241C4.7775 3.28667 2.625 5.78103 2.625 8.78205V13.6538L0 15.6026V16.5769H21V15.6026L18.375 13.6538ZM15.75 14.6282H5.25V8.78205C5.25 6.36564 7.23187 4.39744 10.5 4.39744C13.7681 4.39744 15.75 6.36564 15.75 8.78205V14.6282Z" fill="#313030"/>
</svg>
